<mxfile host="app.diagrams.net" modified="2021-12-22T17:57:36.401Z" agent="5.0 (Macintosh)" etag="0jU0f0Mu8Ds4XTfpmlUD" version="16.0.3" type="github">
  <diagram id="VlG8tfiirLmR-vOxRm97" name="Page-1">
    <mxGraphModel dx="1186" dy="713" grid="1" gridSize="10" guides="1" tooltips="1" connect="1" arrows="1" fold="1" page="1" pageScale="1" pageWidth="850" pageHeight="1100" math="0" shadow="0">
      <root>
        <mxCell id="0" />
        <mxCell id="1" parent="0" />
        <mxCell id="cjlybKbevWP7_hwLjFrV-1" value="&lt;div&gt;WEBSOCKET&lt;/div&gt;&lt;div&gt;HANDLER 1&lt;br&gt;&lt;/div&gt;" style="rounded=1;whiteSpace=wrap;html=1;" parent="1" vertex="1">
          <mxGeometry x="120" y="170" width="120" height="60" as="geometry" />
        </mxCell>
        <mxCell id="cjlybKbevWP7_hwLjFrV-2" value="&lt;div&gt;WEBSOCKET&lt;/div&gt;&lt;div&gt;HANDLER 2&lt;br&gt;&lt;/div&gt;" style="rounded=1;whiteSpace=wrap;html=1;" parent="1" vertex="1">
          <mxGeometry x="120" y="260" width="121" height="60" as="geometry" />
        </mxCell>
        <mxCell id="cjlybKbevWP7_hwLjFrV-3" value="" style="endArrow=none;html=1;rounded=0;" parent="1" edge="1">
          <mxGeometry width="50" height="50" relative="1" as="geometry">
            <mxPoint x="270" y="560" as="sourcePoint" />
            <mxPoint x="270" y="80" as="targetPoint" />
          </mxGeometry>
        </mxCell>
        <mxCell id="cjlybKbevWP7_hwLjFrV-4" value="&lt;div&gt;WEBSOCKET&lt;/div&gt;&lt;div&gt;HANDLER N&lt;br&gt;&lt;/div&gt;" style="rounded=1;whiteSpace=wrap;html=1;" parent="1" vertex="1">
          <mxGeometry x="120" y="370" width="121" height="60" as="geometry" />
        </mxCell>
        <mxCell id="cjlybKbevWP7_hwLjFrV-5" value="&lt;div&gt;WEBSOCKET&lt;/div&gt;MANAGER" style="rounded=1;whiteSpace=wrap;html=1;" parent="1" vertex="1">
          <mxGeometry x="290" y="110" width="121" height="60" as="geometry" />
        </mxCell>
        <mxCell id="cjlybKbevWP7_hwLjFrV-6" value="MESSAGE SERVICE" style="rounded=1;whiteSpace=wrap;html=1;" parent="1" vertex="1">
          <mxGeometry x="290" y="200" width="121" height="60" as="geometry" />
        </mxCell>
        <mxCell id="cjlybKbevWP7_hwLjFrV-7" value="GROUP SERVICE" style="rounded=1;whiteSpace=wrap;html=1;" parent="1" vertex="1">
          <mxGeometry x="290" y="290" width="121" height="60" as="geometry" />
        </mxCell>
        <mxCell id="cjlybKbevWP7_hwLjFrV-8" value="&lt;div&gt;GROUP MSG&lt;/div&gt;&lt;div&gt;HANDLER&lt;br&gt;&lt;/div&gt;" style="rounded=1;whiteSpace=wrap;html=1;" parent="1" vertex="1">
          <mxGeometry x="290" y="370" width="121" height="60" as="geometry" />
        </mxCell>
        <mxCell id="cjlybKbevWP7_hwLjFrV-11" value="" style="edgeStyle=orthogonalEdgeStyle;rounded=0;orthogonalLoop=1;jettySize=auto;html=1;" parent="1" source="cjlybKbevWP7_hwLjFrV-9" target="cjlybKbevWP7_hwLjFrV-10" edge="1">
          <mxGeometry relative="1" as="geometry" />
        </mxCell>
        <mxCell id="cjlybKbevWP7_hwLjFrV-9" value="ASSET MGR" style="rounded=1;whiteSpace=wrap;html=1;" parent="1" vertex="1">
          <mxGeometry x="290" y="450" width="121" height="60" as="geometry" />
        </mxCell>
        <mxCell id="cjlybKbevWP7_hwLjFrV-13" style="edgeStyle=orthogonalEdgeStyle;rounded=0;orthogonalLoop=1;jettySize=auto;html=1;" parent="1" source="cjlybKbevWP7_hwLjFrV-10" edge="1">
          <mxGeometry relative="1" as="geometry">
            <mxPoint x="410" y="480" as="targetPoint" />
          </mxGeometry>
        </mxCell>
        <mxCell id="cjlybKbevWP7_hwLjFrV-10" value="S3 for Images" style="whiteSpace=wrap;html=1;rounded=1;" parent="1" vertex="1">
          <mxGeometry x="491.5" y="450" width="120" height="60" as="geometry" />
        </mxCell>
        <mxCell id="cjlybKbevWP7_hwLjFrV-14" value="CDN for videos" style="whiteSpace=wrap;html=1;rounded=1;" parent="1" vertex="1">
          <mxGeometry x="500" y="520" width="120" height="60" as="geometry" />
        </mxCell>
        <mxCell id="cjlybKbevWP7_hwLjFrV-19" value="" style="endArrow=classic;startArrow=classic;html=1;rounded=0;exitX=0.579;exitY=1;exitDx=0;exitDy=0;exitPerimeter=0;entryX=0;entryY=0.5;entryDx=0;entryDy=0;" parent="1" source="cjlybKbevWP7_hwLjFrV-9" target="cjlybKbevWP7_hwLjFrV-14" edge="1">
          <mxGeometry width="50" height="50" relative="1" as="geometry">
            <mxPoint x="400" y="400" as="sourcePoint" />
            <mxPoint x="500" y="570" as="targetPoint" />
            <Array as="points">
              <mxPoint x="430" y="530" />
            </Array>
          </mxGeometry>
        </mxCell>
        <mxCell id="cjlybKbevWP7_hwLjFrV-20" value="CASSANDRA" style="shape=cylinder3;whiteSpace=wrap;html=1;boundedLbl=1;backgroundOutline=1;size=15;" parent="1" vertex="1">
          <mxGeometry x="491.5" y="180" width="78.5" height="100" as="geometry" />
        </mxCell>
        <mxCell id="cjlybKbevWP7_hwLjFrV-22" value="" style="endArrow=classic;startArrow=classic;html=1;rounded=0;entryX=0;entryY=0.5;entryDx=0;entryDy=0;entryPerimeter=0;exitX=1;exitY=0.5;exitDx=0;exitDy=0;" parent="1" source="cjlybKbevWP7_hwLjFrV-6" target="cjlybKbevWP7_hwLjFrV-20" edge="1">
          <mxGeometry width="50" height="50" relative="1" as="geometry">
            <mxPoint x="400" y="400" as="sourcePoint" />
            <mxPoint x="450" y="350" as="targetPoint" />
          </mxGeometry>
        </mxCell>
        <mxCell id="cjlybKbevWP7_hwLjFrV-23" value="REDIS" style="shape=cylinder3;whiteSpace=wrap;html=1;boundedLbl=1;backgroundOutline=1;size=15;" parent="1" vertex="1">
          <mxGeometry x="491.5" y="90" width="60" height="80" as="geometry" />
        </mxCell>
        <mxCell id="cjlybKbevWP7_hwLjFrV-24" value="" style="endArrow=classic;startArrow=classic;html=1;rounded=0;entryX=0;entryY=0.5;entryDx=0;entryDy=0;entryPerimeter=0;exitX=1;exitY=0.5;exitDx=0;exitDy=0;" parent="1" edge="1">
          <mxGeometry width="50" height="50" relative="1" as="geometry">
            <mxPoint x="411" y="139.5" as="sourcePoint" />
            <mxPoint x="491.5" y="139.5" as="targetPoint" />
          </mxGeometry>
        </mxCell>
        <mxCell id="cjlybKbevWP7_hwLjFrV-26" value="KAFKA" style="rounded=0;whiteSpace=wrap;html=1;" parent="1" vertex="1">
          <mxGeometry x="640" y="110" width="100" height="280" as="geometry" />
        </mxCell>
        <mxCell id="cjlybKbevWP7_hwLjFrV-27" value="ANALYTICS SERVICE" style="rounded=1;whiteSpace=wrap;html=1;" parent="1" vertex="1">
          <mxGeometry x="480" y="310" width="121" height="60" as="geometry" />
        </mxCell>
        <mxCell id="cjlybKbevWP7_hwLjFrV-28" value="HADOOP" style="rounded=0;whiteSpace=wrap;html=1;" parent="1" vertex="1">
          <mxGeometry x="640" y="400" width="100" height="30" as="geometry" />
        </mxCell>
        <mxCell id="cjlybKbevWP7_hwLjFrV-29" value="MinimumVersionService" style="rounded=1;whiteSpace=wrap;html=1;" parent="1" vertex="1">
          <mxGeometry x="290" y="600" width="145" height="60" as="geometry" />
        </mxCell>
        <mxCell id="cjlybKbevWP7_hwLjFrV-30" value="LAST SEEN SERVICE" style="rounded=1;whiteSpace=wrap;html=1;" parent="1" vertex="1">
          <mxGeometry x="481" y="600" width="120" height="60" as="geometry" />
        </mxCell>
      </root>
    </mxGraphModel>
  </diagram>
</mxfile>
